<svg xmlns="http://www.w3.org/2000/svg" viewBox="0 0 512 512" role="img" aria-label="Gurney genealogy favicon: argent shield with cross engrailed gules and gold G">
  <circle cx="256" cy="256" r="238" fill="#1a1714"/>
  <circle cx="256" cy="256" r="222" fill="none" stroke="#d3b468" stroke-width="10"/>
  <g transform="translate(56 56) scale(.78)">
    <defs>
      <clipPath id="shieldClip">
        <path d="M256 56 L432 122 L397 286 L256 474 L115 286 L80 122 Z"/>
      </clipPath>
    </defs>
    <path d="M256 56 L432 122 L397 286 L256 474 L115 286 L80 122 Z" fill="#f1ebdd"/>
    <g clip-path="url(#shieldClip)" fill="#9c141b">
      <rect x="201" y="20" width="110" height="472"/>
      <rect x="20" y="201" width="472" height="110"/>
      <g>
        <circle cx="201" cy="70" r="18"/><circle cx="311" cy="70" r="18"/>
        <circle cx="201" cy="120" r="18"/><circle cx="311" cy="120" r="18"/>
        <circle cx="201" cy="170" r="18"/><circle cx="311" cy="170" r="18"/>
        <circle cx="201" cy="342" r="18"/><circle cx="311" cy="342" r="18"/>
        <circle cx="201" cy="392" r="18"/><circle cx="311" cy="392" r="18"/>
        <circle cx="201" cy="442" r="18"/><circle cx="311" cy="442" r="18"/>
        <circle cx="70" cy="201" r="18"/><circle cx="70" cy="311" r="18"/>
        <circle cx="120" cy="201" r="18"/><circle cx="120" cy="311" r="18"/>
        <circle cx="170" cy="201" r="18"/><circle cx="170" cy="311" r="18"/>
        <circle cx="342" cy="201" r="18"/><circle cx="342" cy="311" r="18"/>
        <circle cx="392" cy="201" r="18"/><circle cx="392" cy="311" r="18"/>
        <circle cx="442" cy="201" r="18"/><circle cx="442" cy="311" r="18"/>
      </g>
    </g>
    <path d="M256 56 L432 122 L397 286 L256 474 L115 286 L80 122 Z" fill="none" stroke="#694b1e" stroke-width="22" stroke-linejoin="round"/>
    <path d="M256 56 L432 122 L397 286 L256 474 L115 286 L80 122 Z" fill="none" stroke="#ecd48c" stroke-width="4" stroke-linejoin="round"/>
  </g>
  <text x="256" y="296" text-anchor="middle" font-family="Georgia, 'Times New Roman', serif" font-size="112" font-weight="700" fill="#e8c76a" stroke="#492d12" stroke-width="4">G</text>
</svg>
